<svg xmlns="http://www.w3.org/2000/svg" xmlns:xlink="http://www.w3.org/1999/xlink" width="600" height="487.604" viewBox="0 0 600 487.604"><defs><clipPath id="a"><path d="M413.949,340.192H550.1c1.546.138,2.091,1.146,2.454,2.662l22.362,118.031c.211,1.485.044,2.527-1.444,2.661H437.32c-1.576-.137-2.086-1.116-2.453-2.661L412.5,342.854C412.292,341.346,412.426,340.332,413.949,340.192Z" transform="translate(-412.426 -340.192)" fill="none"/></clipPath></defs><g transform="translate(-190.903 -137.461)"><g transform="translate(190.903 137.461)"><path d="M1027.069,483.179H988.677v-17.1h38.392Zm-37.777-.615h37.162v-15.87H989.292Z" transform="translate(-497.792 -263.874)" fill="#183f77"/><path d="M1059.993,513.064H1021.6v-17.1h38.392Zm-37.777-.615h37.161v-15.87h-37.161Z" transform="translate(-510.458 -275.371)" fill="#183f77"/><path d="M1091.4,483.179h-38.392v-17.1H1091.4Zm-37.777-.615h37.161v-15.87H1053.62Z" transform="translate(-522.538 -263.874)" fill="#183f77"/><g transform="translate(455.326 4.595)"><g transform="translate(43.756)"><rect width="1.418" height="44.237" fill="#a18fa3"/></g><g transform="translate(22.732 72.129)"><path d="M989.564,305.617a21.733,21.733,0,1,1,21.734-21.734A21.757,21.757,0,0,1,989.564,305.617Zm0-42.522a20.789,20.789,0,1,0,20.788,20.789A20.812,20.812,0,0,0,989.564,263.095Z" transform="translate(-967.831 -262.15)" fill="#bf420b"/></g><path d="M1006.162,292.449a8.032,8.032,0,1,0-8.032,8.032A8.033,8.033,0,0,0,1006.162,292.449Z" transform="translate(-953.664 -198.587)" fill="#f7f9fc"/><path d="M931.043,292.849a.771.771,0,0,0,.616,1.234h87.388a.772.772,0,0,0,.617-1.234l-1.146-1.522H932.189Z" transform="translate(-930.888 -201.245)" fill="#bf420b"/><path d="M1019.331,262.174l-4.133-6.914a14.312,14.312,0,0,0-10.127-6.8l-9.228-1.407a12.061,12.061,0,0,1-10.077-9.926l-2.95-17.567a6.661,6.661,0,0,0-1.378-3.068,2.523,2.523,0,0,0-1.969-.945h-6.6a2.528,2.528,0,0,0-1.969.945,6.666,6.666,0,0,0-1.378,3.068l-2.95,17.567a12.062,12.062,0,0,1-10.078,9.926l-9.229,1.407a14.311,14.311,0,0,0-10.127,6.805L933,262.174Z" transform="translate(-931.701 -172.092)" fill="#ff580f"/><path d="M1003.085,197.052a1.089,1.089,0,0,0-1.082-.962h-1.832a1.09,1.09,0,0,0-1.083.962l-1.3,11.007h6.6Z" transform="translate(-956.622 -164.609)" fill="#bf420b"/></g><path d="M270.508,298.46H190.9v-161h79.6Zm-78.99-.615h78.374V138.076H191.518Z" transform="translate(-190.903 -137.461)" fill="#183f77"/><path d="M418.973,298.46h-79.6v-161h79.6Zm-78.99-.615h78.374V138.076H339.983Z" transform="translate(-248.015 -137.461)" fill="#183f77"/><path d="M270.508,577.529H190.9v-161h79.6Zm-78.99-.615h78.374V417.145H191.518Z" transform="translate(-190.903 -244.814)" fill="#183f77"/><path d="M418.973,577.529h-79.6v-161h79.6Zm-78.99-.615h78.374V417.145H339.983Z" transform="translate(-248.015 -244.814)" fill="#183f77"/></g><g transform="translate(203.574 223.93)"><g transform="translate(0 382.623)" style="mix-blend-mode:multiply;isolation:isolate"><path d="M714.745,918.33H222.477c-6.065,0-10.981-4.144-10.981-9.256s4.916-9.256,10.981-9.256H714.745c6.064,0,10.981,4.145,10.981,9.256S720.809,918.33,714.745,918.33Z" transform="translate(-211.496 -899.818)" fill="#ded4db"/></g><path d="M640.823,881.608a9.256,9.256,0,1,0,18.512,0v-17.1H640.823Z" transform="translate(-376.65 -503.614)" fill="#ff580f"/><g transform="translate(236.974 363.099)"><path d="M613.3,879.962a40.979,40.979,0,0,0,9.619-7.3c1.376-1.39,2.471-2.684,3.566-4.01a1.4,1.4,0,0,1,2.446.366,17.289,17.289,0,0,0,1.747,3.7,8.531,8.531,0,0,0,7.61,3.91c3.893,0,5.977-3.91,10.4-3.91a6.19,6.19,0,0,1,3.243.986l.4.517c.289.942.706,2.242,1.133,3.7a5.232,5.232,0,0,0-3.563-1.3c-2.624,0-6.946,4.715-6.946,11.1H608.865S608.526,883.531,613.3,879.962Z" transform="translate(-601.329 -868.088)" fill="#1a1a1a"/><path d="M671.22,881.98a5.234,5.234,0,0,1,3.568,1.3,37.585,37.585,0,0,1,1.773,9.8H664.274C664.274,886.7,668.6,881.98,671.22,881.98Z" transform="translate(-622.646 -873.432)" fill="#ccc"/><path d="M604.192,895.156h-7.479c.55-4.269,4.981-4.82,7.269-5.657a34.629,34.629,0,0,0,4.651-2.115h0C603.853,890.954,604.192,895.156,604.192,895.156Z" transform="translate(-596.656 -875.511)" fill="#ccc"/><path d="M619.18,886.689a1.2,1.2,0,0,1-.275-.032,1.243,1.243,0,0,1-.972-1.443,3.423,3.423,0,0,1,3.808-3.026c-.6.45-1.216,3.2-1.308,3.533A1.325,1.325,0,0,1,619.18,886.689Z" transform="translate(-604.811 -873.509)" fill="#e9e6ec"/><path d="M624.5,882.222a1.212,1.212,0,0,1-.274-.032,1.243,1.243,0,0,1-.972-1.444,3.423,3.423,0,0,1,3.808-3.026c-.6.45-1.216,3.2-1.308,3.533A1.326,1.326,0,0,1,624.5,882.222Z" transform="translate(-606.858 -871.791)" fill="#e9e6ec"/><path d="M629.719,877.134a1.273,1.273,0,0,1-.276-.024,1.244,1.244,0,0,1-1.01-1.418,3.418,3.418,0,0,1,3.721-3.126.9.9,0,0,0-.1.112,12.563,12.563,0,0,0-1.1,3.454A1.325,1.325,0,0,1,629.719,877.134Z" transform="translate(-608.852 -869.81)" fill="#e9e6ec"/><path d="M645.38,907.328H600.514c-1.661,0-3.893-2.356-3.893-7.467a5.833,5.833,0,0,1,.559-2.623h53.278C650.844,901.619,649.909,907.328,645.38,907.328Z" transform="translate(-596.621 -879.302)" fill="#ccc"/><path d="M608.23,901.025H654.6a16.847,16.847,0,0,1-.178,2.04H608.23a1.02,1.02,0,1,1,0-2.04Z" transform="translate(-600.694 -880.759)" fill="#3c1a36"/></g><g transform="translate(309.246 194.65)"><circle cx="4.221" cy="4.221" r="4.221" transform="translate(5.533 0.171)" fill="#ddd3da"/><path d="M753.681,603.57a7.309,7.309,0,0,0-3.7-5.841,29.241,29.241,0,0,0-13.892-3.392c-9.234-.2-17.724,3.762-21.224,7.281a2.712,2.712,0,0,0,.847,4.4,17.116,17.116,0,0,0,6.777,1.4H746.4a14.633,14.633,0,0,0,5.622-1.124,2.711,2.711,0,0,0,1.663-2.7Z" transform="translate(-714.075 -594.33)" fill="#a18b9c"/></g><g transform="translate(353.351 219.045)"><path d="M785.753,633.976,801.4,805.468a1.474,1.474,0,0,0,1.469,1.341h2.571a1.292,1.292,0,0,0,1.292-1.352L798.8,633.976Z" transform="translate(-785.753 -633.976)" fill="#a18fa3"/><path d="M800.324,666.893,798.8,633.976H785.753l3,32.917Z" transform="translate(-785.753 -633.976)" fill="#ded4db" style="mix-blend-mode:multiply;isolation:isolate"/></g><g transform="translate(210.106 131.728)"><path d="M581.182,492.07h-4.508c2.077,0,3.757,2.376,3.757,5.313a7.459,7.459,0,0,1-.414,2.421l-17.372,62.631a5.793,5.793,0,0,1-.21.746l-.065.172c-.633,1.664-1.866,2.811-3.3,2.811h4.508c1.428,0,2.661-1.148,3.294-2.811l.065-.172a5.9,5.9,0,0,0,.211-.746L584.525,499.8a7.459,7.459,0,0,0,.414-2.421C584.939,494.446,583.259,492.07,581.182,492.07Z" transform="translate(-555.309 -492.07)" fill="#d5c9d1"/><path d="M556.72,566.166c1.429,0,2.662-1.148,3.3-2.811l.065-.172a5.79,5.79,0,0,0,.21-.746L577.663,499.8a7.458,7.458,0,0,0,.414-2.421c0-2.938-1.68-5.313-3.757-5.313-1.468,0-2.734,1.2-3.351,2.949-.1.287-.146.458-.187.631l-17.51,63.068-.1.378a7.7,7.7,0,0,0-.219,1.756C552.956,563.791,554.644,566.166,556.72,566.166Z" transform="translate(-552.956 -492.07)" fill="#b3a0ae"/></g><g transform="translate(144.698 193.281)"><path d="M598.869,592.1h-63.11c.284,0,.511.322.511.723V605.84c0,.4-.228.723-.511.723h63.11c.284,0,.511-.322.511-.723V592.827C599.38,592.426,599.153,592.1,598.869,592.1Z" transform="translate(-480.932 -592.104)" fill="#d5c9d1"/><path d="M501.994,605.84V592.827c0-.4-.228-.723-.511-.723H451.766a3.687,3.687,0,0,0-1.028.147,3.942,3.942,0,0,0-.489.178,4.674,4.674,0,0,0-1.338.91,6.025,6.025,0,0,0-.757.882,7.351,7.351,0,0,0-.626,1.07,9.415,9.415,0,0,0-.874,4.043c0,3.981,2.3,7.229,5.111,7.229h49.716C501.766,606.563,501.994,606.242,501.994,605.84Z" transform="translate(-446.655 -592.104)" fill="#b3a0ae"/></g><g transform="translate(142.437 131.728)"><path d="M471.208,492.07H466.7c2.077,0,3.757,2.376,3.757,5.313a7.475,7.475,0,0,1-.413,2.421l-17.373,62.631a5.8,5.8,0,0,1-.21.746l-.065.172c-.633,1.664-1.866,2.811-3.294,2.811h4.508c1.428,0,2.661-1.148,3.294-2.811l.065-.172a5.8,5.8,0,0,0,.211-.746L474.551,499.8a7.458,7.458,0,0,0,.414-2.421C474.965,494.446,473.285,492.07,471.208,492.07Z" transform="translate(-445.336 -492.07)" fill="#d5c9d1"/><path d="M446.747,566.166c1.428,0,2.661-1.148,3.294-2.811l.065-.172a5.8,5.8,0,0,0,.21-.746L467.69,499.8a7.475,7.475,0,0,0,.413-2.421c0-2.938-1.68-5.313-3.757-5.313-1.469,0-2.735,1.2-3.352,2.949a6.474,6.474,0,0,0-.186.631L443.3,558.719l-.1.378a7.7,7.7,0,0,0-.219,1.756C442.982,563.791,444.67,566.166,446.747,566.166Z" transform="translate(-442.982 -492.07)" fill="#e5dfe5"/></g><path d="M575.874,466.073l-24.59-129.784c-.63-3.326-3.123-6.03-5.557-6.03H403.584a2.937,2.937,0,0,0-1.539.434c-.039.023-.079.041-.117.066a3.224,3.224,0,0,0-.6.516c-.038.042-.067.1-.1.139a3.938,3.938,0,0,0-.378.542c-.049.087-.09.183-.134.276a4.831,4.831,0,0,0-.226.544c-.038.111-.07.225-.1.341a6,6,0,0,0-.147.708c-.013.089-.022.18-.031.271a7.171,7.171,0,0,0-.035.914c0,.049,0,.1.007.149a8.3,8.3,0,0,0,.13,1.131L424.9,466.073c.006.03.018.058.024.089.016.081.044.158.062.238.031.134.068.265.1.4.022.078.038.158.062.234.015.05.024.1.04.153.037.111.079.218.12.327q.132.357.29.7c.071.151.144.3.222.44q.157.292.332.565c.086.135.172.267.265.4a8.081,8.081,0,0,0,.572.721c.013.014.027.026.04.04a6.842,6.842,0,0,0,.7.646c.034.027.066.057.1.083a5.551,5.551,0,0,0,.746.485l.145.076a4.36,4.36,0,0,0,.777.305c.042.011.084.018.126.028a3.515,3.515,0,0,0,.833.112H572.6a3.03,3.03,0,0,0,.774-.11c.054-.014.106-.026.158-.044C575.393,471.349,576.42,468.955,575.874,466.073Z" transform="translate(-284.076 -298.096)" fill="#e5dfe5"/><g transform="translate(110.007 32.355)"><path d="M569.728,472.07c-.052.017-.1.03-.158.044a3.027,3.027,0,0,1-.774.11H426.652a3.515,3.515,0,0,1-.833-.112c-.042-.01-.083-.017-.126-.028a4.359,4.359,0,0,1-.777-.305l-.145-.076a5.535,5.535,0,0,1-.746-.485c-.034-.026-.066-.056-.1-.083a6.836,6.836,0,0,1-.7-.646c-.013-.014-.027-.026-.04-.04a8.081,8.081,0,0,1-.572-.721c-.092-.128-.178-.26-.265-.4-.117-.183-.227-.37-.332-.565-.078-.144-.151-.289-.222-.44q-.159-.339-.29-.7c-.041-.11-.083-.216-.12-.327-.016-.049-.025-.1-.04-.153-.024-.077-.04-.156-.062-.234-.036-.131-.073-.262-.1-.4-.018-.081-.046-.157-.062-.238-.006-.031-.018-.059-.024-.089l-24.59-129.784a8.3,8.3,0,0,1-.13-1.131c0-.05-.006-.1-.007-.149a7.166,7.166,0,0,1,.035-.914c.009-.091.018-.181.031-.271a6,6,0,0,1,.147-.708c.031-.117.063-.23.1-.341a4.842,4.842,0,0,1,.226-.544c.044-.093.085-.188.134-.276a3.938,3.938,0,0,1,.378-.542c.036-.044.065-.1.1-.139a3.224,3.224,0,0,1,.6-.516c.038-.025.078-.042.117-.066s.058-.049.092-.067a2.872,2.872,0,0,1,.377-.175l-6.1,2.309c-.078.03-.145.079-.218.115a2.773,2.773,0,0,0-.271.143,3.071,3.071,0,0,0-.339.249,2.92,2.92,0,0,0-.244.213,3.426,3.426,0,0,0-.287.34c-.044.057-.088.113-.129.172-.02.029-.042.053-.062.083a4.415,4.415,0,0,0-.424.834c-.015.041-.023.087-.038.129a5.709,5.709,0,0,0-.223.86c-.019.108-.031.22-.046.331a6.8,6.8,0,0,0-.052.811c0,.115-.006.229,0,.346a8.123,8.123,0,0,0,.13,1.213L415,468.5a8.99,8.99,0,0,0,.292,1.11c.036.111.081.219.121.329.055.148.119.29.181.434.037.086.07.176.109.261.07.15.145.3.222.442q.157.291.331.563c.086.135.173.268.265.4.049.068.1.129.155.2.138.178.27.365.417.526l.039.039a6.794,6.794,0,0,0,.7.648c.033.026.065.056.1.082a5.527,5.527,0,0,0,.746.485c.049.026.1.052.145.076a4.346,4.346,0,0,0,.778.305c.041.011.084.018.126.029a3.542,3.542,0,0,0,.833.111H562.7a3,3,0,0,0,1.072-.192l6.1-2.31C569.824,472.047,569.775,472.055,569.728,472.07Z" transform="translate(-390.277 -330.571)" fill="#b3a0ae"/></g><g transform="translate(171.465 200.312)"><path d="M638.231,609.911c-.16-1.3-.953-2.246-1.88-2.246H492.065c-1.054,0-1.908,1.215-1.908,2.715v1.032c0,.628.357,1.138.8,1.138H637.6a.736.736,0,0,0,.612-.406,1.5,1.5,0,0,0,.175-.928Z" transform="translate(-490.157 -605.122)" fill="#d5c9d1"/><path d="M636.105,603.532H499.135c-.442,0-.8.509-.8,1.138v1.405H636.9V604.67C636.9,604.041,636.547,603.532,636.105,603.532Z" transform="translate(-493.303 -603.532)" fill="#cabbc5"/><path d="M527.835,609.911c-.16-1.3-.953-2.246-1.88-2.246H492.065c-1.054,0-1.908,1.215-1.908,2.715v1.032c0,.628.357,1.138.8,1.138h36.251a.735.735,0,0,0,.612-.406,1.5,1.5,0,0,0,.175-.928Z" transform="translate(-490.157 -605.122)" fill="#b3a0ae"/><path d="M529.561,603.532H509.148c-.441,0-.8.509-.8,1.138v1.405h22.012V604.67C530.361,604.041,530,603.532,529.561,603.532Z" transform="translate(-497.155 -603.532)" fill="#c1b0bc"/><path d="M501.769,603.532h-2.634c-.442,0-.8.509-.8,1.138v1.405h4.233V604.67C502.568,604.041,502.21,603.532,501.769,603.532Z" transform="translate(-493.303 -603.532)" fill="#c1b0bc"/></g><g transform="translate(72.984 207.74)"><path d="M4.071,0H444.96a4.073,4.073,0,0,1,4.073,4.073V7.234a4.071,4.071,0,0,1-4.071,4.071H4.072A4.072,4.072,0,0,1,0,7.234V4.071A4.071,4.071,0,0,1,4.071,0Z" fill="#594762"/><path d="M4.071,0H294.365a4.072,4.072,0,0,1,4.072,4.072V7.234a4.071,4.071,0,0,1-4.071,4.071H4.072A4.072,4.072,0,0,1,0,7.234V4.071A4.071,4.071,0,0,1,4.071,0Z" transform="translate(150.596)" fill="#655470"/></g><g transform="translate(323.284 110.327)"><path d="M866.164,546.975a19.91,19.91,0,0,0,4.069-12.058,19.653,19.653,0,0,0-.664-5.071l-17.7-66.04a8.793,8.793,0,1,0-16.986,4.553L852.581,534.4a2.088,2.088,0,0,1,.073.55,2.154,2.154,0,0,1-2.157,2.165H793.109a1.262,1.262,0,0,0-1.263,1.263v15.061a1.263,1.263,0,0,0,1.263,1.263H850.5A19.87,19.87,0,0,0,866.164,546.975Z" transform="translate(-758.03 -457.289)" fill="#ff580f"/><path d="M771.711,590.03a6.941,6.941,0,1,0,0,13.883h9.718V590.03Z" transform="translate(-747.614 -508.352)" fill="#ffa898"/><path d="M738.033,581.3a3.08,3.08,0,0,0,1.774,5.473.785.785,0,0,1,.735.907,3.069,3.069,0,0,0,2.875,3.557.784.784,0,0,1,.735.907,3.072,3.072,0,0,0,3.452,3.534.785.785,0,0,1,.887.711,3.027,3.027,0,0,0,.664,1.659,3.084,3.084,0,0,0,4.339.459l1.8-1.456a2.3,2.3,0,0,1,2.163-.4c4.149,1.36,7.952,1.119,9.981-1,3.293-3.449.665-10.539-5.874-15.833C748.93,569.593,750.328,571.362,738.033,581.3Z" transform="translate(-736.889 -501.782)" fill="#ffa898"/></g><path d="M766.254,690.133a12.358,12.358,0,0,0-12.341-12.341H668.4a32.632,32.632,0,0,0-32.6,32.581v82.814a1.54,1.54,0,0,0,1.54,1.539h21.6a1.539,1.539,0,0,0,1.539-1.539V710.373a7.917,7.917,0,0,1,7.914-7.9h85.509A12.358,12.358,0,0,0,766.254,690.133Z" transform="translate(-374.721 -431.786)" fill="#736357"/><g transform="translate(217.45 246.006)"><path d="M569.9,874.571a9.256,9.256,0,1,0,18.512,0V864.513H569.9Z" transform="translate(-566.819 -749.62)" fill="#ff580f"/><path d="M698.421,690.133a12.358,12.358,0,0,0-12.341-12.341H597.486a32.632,32.632,0,0,0-32.6,32.581v82.814a1.539,1.539,0,0,0,1.539,1.539h21.6a1.539,1.539,0,0,0,1.539-1.539V710.373a7.917,7.917,0,0,1,7.914-7.9H686.08A12.358,12.358,0,0,0,698.421,690.133Z" transform="translate(-564.89 -677.792)" fill="#998675"/></g><g transform="translate(350.437 59.747)"><path d="M795.953,443.575a12.132,12.132,0,0,1-9.938-10.614l-4.922-44.4a12.13,12.13,0,1,1,24.112-2.672l4.922,44.4a12.138,12.138,0,0,1-14.174,13.286Z" transform="translate(-781.018 -375.088)" fill="#ffa898"/></g><g transform="translate(319.712 95.729)"><g transform="translate(0 7.172)"><path d="M735.836,453.06c20.305-10.468,67.962-10.434,88.273,0a8.8,8.8,0,0,1,1.847,14.339,19.878,19.878,0,0,0-6.424,12.527c-.828,7.323,1.343,17.426-2.831,26.687-1.11,2.466-2.234,5.286-3.422,8.27-1.445,3.629-2.939,7.381-4.681,11.207-6.34,13.932-10.98,26.572-4.577,40.46a51.629,51.629,0,0,1,2.535,6.681c.2.658.445,1.559.7,2.643a1.219,1.219,0,0,1-1.188,1.5H741.783a1.22,1.22,0,0,1-1.216-1.322,40.218,40.218,0,0,1,.656-4.606,108.519,108.519,0,0,0-.872-47.746c-3.517-14.808-4.232-32.513-3.555-44.477a19.9,19.9,0,0,0-3.95-13.071,8.8,8.8,0,0,1,2.989-13.093Z" transform="translate(-731.084 -445.222)" fill="#ff580f"/></g><path d="M757.407,687.655h43.262a25.425,25.425,0,0,0,8.605-7.316c8.853-11.906,4.937-28.128,3.525-32.816a52.454,52.454,0,0,0-2.594-6.842c-.074-.16-.145-.321-.214-.482a1.54,1.54,0,0,0-1.415-.933H747.521A1.538,1.538,0,0,0,746,640.576c-.266,1.766-.567,3.525-.92,5.271a41.8,41.8,0,0,0-.828,8.248v.49c0,9.711,0,18.883,4.725,25.867A21.49,21.49,0,0,0,757.407,687.655Z" transform="translate(-736.149 -512.696)" fill="#998675"/><path d="M784.888,441.5c-.926-4.9,10.262-8.05,16.963-7.935,12.393.213,12.351,7.709,12.34,7.735A162.071,162.071,0,0,0,784.888,441.5Z" transform="translate(-751.761 -433.566)" fill="#f3f0f3"/><g transform="translate(8.155 130.582)"><path d="M847.722,645.786H851.1c.21.529.408,1.062.6,1.6.324.877.633,1.758.9,2.648.077.255.161.548.25.871.262.954.567,2.189.853,3.622v0h-3.927Z" transform="translate(-784.108 -645.786)" fill="#333839"/><path d="M748.644,645.786v8.741h-4.306c.046-.922.134-1.841.241-2.758q.04-.343.086-.686c.122-.914.263-1.826.447-2.728.172-.853.324-1.711.473-2.569Z" transform="translate(-744.338 -645.786)" fill="#333839"/><rect width="26.992" height="8.742" transform="translate(7.395)" fill="#333839"/><path d="M806.49,645.786h22.2l2.06,8.742H806.49Z" transform="translate(-768.247 -645.786)" fill="#333839"/></g></g><path d="M579.16,581.3a3.079,3.079,0,0,0,1.773,5.473.785.785,0,0,1,.735.906,3.068,3.068,0,0,0,2.875,3.557.784.784,0,0,1,.734.906,3.072,3.072,0,0,0,3.452,3.534.785.785,0,0,1,.887.711,3.026,3.026,0,0,0,.664,1.658,3.083,3.083,0,0,0,4.338.459l1.8-1.456a2.3,2.3,0,0,1,2.163-.4c4.149,1.36,7.952,1.119,9.982-1,3.293-3.45.665-10.539-5.874-15.833C590.056,569.592,591.454,571.362,579.16,581.3Z" transform="translate(-352.489 -391.455)" fill="#ffa898"/><g transform="translate(291.807 158.708)"><path d="M690.6,740.912h79.622c1.178,0,2.293-.983,2.773-2.618,1.367-4.668,4.617-7.715,8.19-7.715H701.568c-3.574,0-6.822,3.046-8.19,7.715C692.9,739.929,691.782,740.912,690.6,740.912Z" transform="translate(-687.608 -610.801)" fill="#038a2c"/><g transform="translate(82.139 118.19)"><path d="M926.233,842.977a2.576,2.576,0,0,1-2.5-2.138L905.459,744.27c-.679-3.592-2.781-6.216-5.108-6.383L836.316,733.3a4,4,0,0,0-2.937,1.154,10.251,10.251,0,0,0-2.844,6.854L824.313,840.5a2.583,2.583,0,0,1-2.707,2.472,2.616,2.616,0,0,1-2.376-2.816l6.222-99.188a15.472,15.472,0,0,1,4.574-10.5,8.926,8.926,0,0,1,6.641-2.451L900.7,732.6c4.695.336,8.616,4.614,9.758,10.646l18.277,96.569a2.648,2.648,0,0,1-2.008,3.112A2.484,2.484,0,0,1,926.233,842.977Z" transform="translate(-819.224 -727.997)" fill="#482949"/></g><g transform="translate(0.265 118.189)"><path d="M793.173,842.977a2.576,2.576,0,0,1-2.5-2.138L772.4,744.27c-.679-3.592-2.78-6.216-5.108-6.383L703.256,733.3a4.022,4.022,0,0,0-2.937,1.154,10.254,10.254,0,0,0-2.843,6.854L691.253,840.5a2.586,2.586,0,0,1-2.708,2.472,2.616,2.616,0,0,1-2.376-2.816l6.222-99.188a15.474,15.474,0,0,1,4.574-10.5,8.917,8.917,0,0,1,6.641-2.451L767.64,732.6c4.695.336,8.616,4.614,9.758,10.646l18.277,96.568a2.648,2.648,0,0,1-2.008,3.112A2.481,2.481,0,0,1,793.173,842.977Z" transform="translate(-686.164 -727.996)" fill="#5a3c5e"/></g><path d="M773.866,721.424h79.668l-64.2-4.584H709.667Z" transform="translate(-694.941 -605.516)" fill="#04b83a"/><path d="M820.433,736.163H900.1a2.811,2.811,0,0,0,2.39-1.676,5.489,5.489,0,0,0-.577-5.942,12.546,12.546,0,0,0-8.245-4.254H814a12.546,12.546,0,0,1,8.245,4.254,5.486,5.486,0,0,1,.577,5.942A2.81,2.81,0,0,1,820.433,736.163Z" transform="translate(-735.076 -608.381)" fill="#038a2c"/><path d="M699.7,716.8c-5.969,0-11.439,5.1-13.74,12.952-.634,2.16.094,4.64,1.622,5.537a2.251,2.251,0,0,0,1.146.325c1.177,0,2.293-.983,2.773-2.618,1.368-4.668,4.616-7.715,8.19-7.715.154,0,.309.006.463.017l64.2,4.583a7.5,7.5,0,0,1,4.927,2.542,2.478,2.478,0,0,0,1.808.86,2.811,2.811,0,0,0,2.39-1.676,5.486,5.486,0,0,0-.577-5.942,12.546,12.546,0,0,0-8.245-4.254l-64.2-4.583Q700.081,716.8,699.7,716.8Z" transform="translate(-685.734 -605.499)" fill="#038a2c"/><g transform="translate(76.793)" style="isolation:isolate"><path d="M823.063,595.038c3.021-21.5,6.114-34.215,10.022-41.227,3.528-6.324,7.787-8.2,14.41-9.448,1.643-.31,2.8-2.442,2.577-4.764-.2-2.134-1.488-3.68-2.972-3.68h86.612c1.484,0,2.77,1.546,2.972,3.68.219,2.323-.935,4.455-2.577,4.764-6.623,1.25-10.883,3.125-14.41,9.448-3.908,7.012-7,19.727-10.023,41.227s-3.032,34.63-2.509,41.875c.428,5.962,2.654,11.375,6.1,14.847l6.256,6.3a5.448,5.448,0,0,1,.7,5.91,2.855,2.855,0,0,1-2.445,1.784H831.173a2.855,2.855,0,0,0,2.445-1.784,5.449,5.449,0,0,0-.7-5.91l-6.256-6.3c-3.45-3.472-5.676-8.885-6.1-14.847C820.03,629.668,820.041,616.523,823.063,595.038Z" transform="translate(-814.289 -535.918)" fill="#04b83a"/><path d="M843.346,535.918a2.129,2.129,0,0,0-.4.037c-7.794,1.473-13.578,4.092-18.326,12.61-4.587,8.222-7.935,21.628-11.2,44.817-2.543,18.081-3.413,33.014-2.594,44.393.607,8.389,3.737,16.006,8.593,20.889l6.256,6.3a2.457,2.457,0,0,0,1.737.788,2.855,2.855,0,0,0,2.445-1.784,5.448,5.448,0,0,0-.7-5.909l-6.256-6.3c-3.45-3.472-5.676-8.885-6.1-14.847-.522-7.245-.512-20.389,2.51-41.875s6.114-34.215,10.022-41.227c3.528-6.324,7.787-8.2,14.411-9.448,1.642-.31,2.8-2.442,2.576-4.764C846.117,537.464,844.83,535.918,843.346,535.918Z" transform="translate(-810.535 -535.918)" fill="#038a2c"/></g></g><g transform="translate(90.027 219.045)"><path d="M357.817,805.347a1.293,1.293,0,0,0,1.281,1.462h2.611a1.475,1.475,0,0,0,1.453-1.218L393.7,633.976H380.522Z" transform="translate(-357.806 -633.976)" fill="#a18fa3"/><path d="M399.315,666.893l5.856-32.917H392l-4.361,32.917Z" transform="translate(-369.281 -633.976)" fill="#ded4db" style="mix-blend-mode:multiply;isolation:isolate"/></g><g transform="translate(469.084 219.045)"><path d="M987.015,633.976H973.841l30.534,171.615a1.474,1.474,0,0,0,1.452,1.218h2.611a1.294,1.294,0,0,0,1.281-1.462Z" transform="translate(-973.841 -633.976)" fill="#a18fa3"/><path d="M991.377,666.893l-4.362-32.917H973.841l5.856,32.917Z" transform="translate(-973.841 -633.976)" fill="#ded4db" style="mix-blend-mode:multiply;isolation:isolate"/></g><g transform="translate(253.797 116.667)"><path d="M658.732,556.139H623.96V543.833h34.772a19.8,19.8,0,0,0,19.055-14.1l15.764-62.142,11.929,3.026-15.8,62.277c-.022.084-.046.168-.07.252A32.033,32.033,0,0,1,658.732,556.139Z" transform="translate(-623.96 -467.594)" fill="#ffa898"/></g><path d="M726.9,524.816l13.061-56.46a8.793,8.793,0,0,0-16.987-4.552l-13.062,56.459Z" transform="translate(-403.228 -346.962)" fill="#ff580f"/><path d="M413.949,340.192H550.1c1.546.138,2.091,1.146,2.454,2.662l22.362,118.031c.211,1.485.044,2.527-1.444,2.661H437.32c-1.576-.137-2.086-1.116-2.453-2.661L412.5,342.854C412.292,341.346,412.426,340.332,413.949,340.192Z" transform="translate(-288.79 -301.917)" fill="#29abe2"/><g transform="translate(124.049 38.275)" opacity="0.19" style="mix-blend-mode:lighten;isolation:isolate"><path d="M547.947,463.546,452.065,340.192h29.156L577.1,463.546Z" transform="translate(-428.088 -340.192)" fill="#a9ddf3"/><path d="M426.255,416.825,413.1,347.386l92.441,118.927H464.721Z" transform="translate(-413.098 -342.959)" fill="#a9ddf3"/></g><g transform="translate(319.95)"><g transform="translate(40.079 7.433)"><g transform="translate(19.121 28.236)"><path d="M845.475,343.52v-.013h6.433l.014.013.142.1.15.072.156.044.158.015.134-.012.134.012.158-.015.156-.044.038-.018v.89h-1.24l-.018-.009-1.586-.446-1.613-.15h-.385l-1.613.15-1.218.342v-.931Z" transform="translate(-834.527 -338.861)" fill="#d5c9d1"/><path d="M862.792,352.982l.189.542.526,1.508.1.415.42,1.75.039.281.276,1.962.007.141.1,2.14-.021.258-.035.184-.051.177-.067.167-.081.155-.094.139-.1.122-.114.1-.122.081-.126.059-.13.036-.131.012-.13-.012-.127-.036-.121-.059-.114-.081-.1-.1-.094-.122-.081-.139-.067-.155-.051-.167-.035-.177-.018-.184,0-.258-.106-2.282-.315-2.243-.52-2.165-.715-2.051-.9-1.9-1.066-1.719-1.215-1.508-1.344-1.27-1.45-1.011-1.531-.735-1.586-.446-1.613-.15h.386l1.613.15,1.586.446.018.009h1.24v-.112l.368.1,1.531.735,1.45,1.011,1.344,1.27,1.216,1.508,1.066,1.719.039.083.273.577Z" transform="translate(-836.297 -339.144)" fill="#dfd5dc"/><path d="M840.077,362.36l.509-.82.58-.719.641-.606.692-.482.73-.35.756-.213.77-.071.4.037.413.114.477.229.529.369.577.545.466.577.548.883.445.943.348,1,.283,1.179.172,1.221.057,1.242-.057,1.242-.172,1.221-.283,1.179-.348,1-.445.943-.548.883-.466.577-.577.545-.529.369-.477.229-.413.114-.4.037-.77-.071-.756-.213-.73-.351-.692-.482-.641-.606-.58-.719-.509-.82-.428-.907-.341-.978-.248-1.033-.151-1.07-.05-1.088.05-1.088.151-1.07.248-1.033.341-.978Z" transform="translate(-831.981 -344.859)" fill="#462742"/><path d="M853.148,335.957V337.5l-.038-.018-.156-.044-.158-.014-.134.012-.134-.012-.158.014-.156.044-.15.072-.142.1-.014.014h-6.433v-1.706h7.673Z" transform="translate(-834.527 -335.957)" fill="#d5c9d1"/><path d="M835.012,347.536l-.08.055-1.255.876-.252.2-1.22,1.152-.184.233-1.082,1.342-.949,1.531-.8,1.692-.067.174-.623,1.785-.452,1.885-.274,1.952-.092,1.986.092,1.986.274,1.952.452,1.885.623,1.785.067.174.8,1.692.949,1.531,1.082,1.343.184.232,1.22,1.153.252.2,1.335.931.307.156,1.424.684.347.1,1.128.316.356.1,1.51.14.372.034,1.513-.14,1.488-.418,1.436-.689,1.36-.949,1.261-1.191,1.14-1.414,1-1.613.842-1.783.671-1.924.487-2.031.3-2.1.1-2.14-.1-2.14-.3-2.1-.487-2.031L850.5,354.2l-.842-1.783-1-1.613-1.14-1.414-1.261-1.191-1.36-.949-1.436-.689-1.488-.418-1.513-.14-.372.034-.145.014-1.365.127-.177.049-.18.052-1.128.316-.237.068-.11.031-1.415.68-.009,0Zm0,11.673.341-.978.429-.907.508-.82.58-.719.641-.605.692-.483.73-.35.756-.213.77-.071.4.038.413.114.477.229.529.37.577.545-.184-.233.637.791.012.018.548.884.445.942.348,1,.282,1.179.172,1.221.058,1.242-.058,1.242-.172,1.221-.282,1.179-.348,1-.445.943-.548.884-.012.018-.637.791.184-.232-.577.545-.529.37-.477.229-.413.114-.4.037-.77-.071-.756-.212-.73-.351-.692-.482-.641-.606-.58-.719-.508-.82-.429-.907-.341-.978-.248-1.033-.151-1.07-.05-1.089.05-1.089.151-1.07Z" transform="translate(-827.682 -339.822)" fill="#64455e"/><path d="M845.994,344.241l1.613.15,1.586.446,1.531.735,1.45,1.011,1.344,1.27,1.215,1.508,1.066,1.719.9,1.9.715,2.051.52,2.165.315,2.243.106,2.282,0,.258.018.184.035.177.051.167.067.155.081.139.094.122.1.1.114.081.121.059.127.036-.764-.071-.126-.036-.121-.059-.114-.081-.1-.1-.094-.122-.081-.139-.067-.154-.051-.167-.035-.177-.018-.183v-.187l-.1-2.14-.3-2.1-.487-2.031-.671-1.923-.843-1.783-1-1.613-1.14-1.414-1.261-1.191-1.36-.949-1.436-.689-1.487-.418-1.513-.14h-1.006l-.372.035-.144.013-1.366.127-.176.049-.18.052-1.128.316-.237.068-.11.031-1.415.68-.009,0-.307.157-.08.056.349-.33,1.45-1.011,1.531-.735.369-.1,1.218-.342Z" transform="translate(-832.215 -339.144)" fill="#eee8ec"/><path d="M844.088,339.823l.031-.22.051-.212.07-.2.088-.186.1-.168.119-.148.132-.125.142-.1.112-.054v.167h6.433l.014-.014.142-.1.15-.072.156-.044.158-.014.134.012.134-.012.158.014.156.044.038.018.112.054.142.1.132.125.119.148.1.168.088.186.07.2.051.212.031.22.01.223-.01.223-.031.22-.051.212-.07.2-.088.186-.1.168-.119.148-.132.124-.142.1-.112.054-.038.018-.156.044-.158.015-.134-.013-.134.013-.158-.015-.156-.044-.15-.072-.142-.1-.014-.014h-6.433v.167l-.112-.054-.142-.1-.132-.124-.119-.148-.1-.168-.088-.186-.07-.2-.051-.212-.031-.22-.011-.223Z" transform="translate(-833.989 -336.872)" fill="#eee8ec"/></g><path d="M845.38,317.86l-.146-5.586c0-.7-.189-12.54-10.428-19.424a3.854,3.854,0,0,0,.611-1.118,4.876,4.876,0,0,0,.289-1.662h-7.567a4.876,4.876,0,0,1-.289,1.662c-.022.063-.054.114-.078.175a18.024,18.024,0,0,1,3.841,1.6,2.358,2.358,0,0,0,1.245.372h-4.24c8.857,6.972,9.048,17.73,9.048,18.4l.146,5.586c.01.247.156.441.34.441h7.567C845.535,318.3,845.389,318.107,845.38,317.86Z" transform="translate(-808.595 -290.069)" fill="#361933"/><path d="M819.624,293.641a18.028,18.028,0,0,0-3.841-1.6,38.882,38.882,0,0,0-11.609-1.62h-7.567c10.225,0,15.42,3.192,15.45,3.219a2.358,2.358,0,0,0,1.245.372h7.567A2.358,2.358,0,0,1,819.624,293.641Z" transform="translate(-796.607 -290.205)" fill="#b6a3b1"/><g transform="translate(26.21)"><path d="M846.314,296a29.888,29.888,0,0,1,5.594,16.126v.1l-.146,5.641c-.009.247-.156.441-.34.441h-1.3c-.185,0-.33-.193-.34-.441l-.146-5.586c0-.7-.189-12.54-10.428-19.424a3.854,3.854,0,0,0,.611-1.118,4.876,4.876,0,0,0,.289-1.662A25.1,25.1,0,0,1,846.314,296Z" transform="translate(-839.203 -290.069)" fill="#51324c"/></g></g><g transform="translate(5.896 4.108)"><g transform="translate(3.12 8.137)"><path d="M821.42,331.663c0-18.653-16.741-33.774-37.391-33.774a40.185,40.185,0,0,0-9.119,1.048,38.319,38.319,0,0,0-22.258,14.484,33.965,33.965,0,0,0-5.331,11.8c-1.346,5.311-1.012,10.644-1.012,16.132,0,5.033-.469,10.28.082,15.292a31.309,31.309,0,0,0,13.738,22.494c8.88,5.84,20.429,3.176,29.511-.793a56.816,56.816,0,0,0,22.5-17.909,48.863,48.863,0,0,0,9.269-27.849Q821.42,332.127,821.42,331.663Z" transform="translate(-746.124 -297.889)" fill="#ffa898"/><path d="M759.224,359.811a3.594,3.594,0,0,0-4.725,3.711c-.049,3.6,2.243,3.852,2.218,7.078-.015,2-.732,2.716-.759,4.684-.025,1.778.683,3.878,2.383,4.284,2.79.666,5.676-3.952,6.117-8.457C764.908,366.5,763.588,360.852,759.224,359.811Z" transform="translate(-749.345 -321.655)" fill="#f48989"/></g><path d="M748.365,300.828c.364-3.691,2.558-6.524,5.683-6.522,1.751-5.222,8.847-7.472,13.153-6.257a3.386,3.386,0,0,1,1.009-.682c3.053-1.741,8.963-2.673,15.542-2.676,6.977-.193,15.02.65,21.831,3.613,12.327,5.361,24.366,18.156,25.146,31.357a21.774,21.774,0,0,0-3.2-5.784,32.4,32.4,0,0,1,.834,5.784c.633,12.808-5.039,21.091-9.854,29.71-3.132,5.606-7.325,13.2-6.34,18.581A12.4,12.4,0,0,1,808,358.295a16.057,16.057,0,0,0-.763,7.474,11.183,11.183,0,0,1-1.459,7.987s-3.07-7.175-3.777-8.267c-5.532,6.428-14.854,9.9-14.854,9.9,2.211-3.79-3.375-12.167-7.16-19.28-1.05,1.316-2.22,2.275-3.167,3.272-4.185,4.411-3.639,8.575-3.639,8.575a43.722,43.722,0,0,1-8.4-15.8c-3.118,5.089-2.213,8.641-2.213,8.641-5.812-6.586-8.863-16.1-9.7-25.342-2.445,4.352-5.943,5.764-9.279,6.508,4.316-2.837,4.35-6.757-.164-16.133C737.628,313.768,743.692,304.32,748.365,300.828Z" transform="translate(-741.053 -284.666)" fill="#c74038"/></g><g transform="translate(0 35.669)"><path d="M755.019,344.563h-1.24l-.017-.009-1.586-.446-1.614-.15h-.385l-1.613.15-1.218.342v-.944h6.433l.015.013.142.1.15.072.156.044.158.015.134-.012.135.012.158-.015.155-.044.038-.018v.89Z" transform="translate(-737.578 -338.861)" fill="#d5c9d1"/><path d="M754.826,337.434l-.158-.014-.135.012-.134-.012-.158.014-.156.044-.15.072-.142.1-.015.014h-6.433v-1.706h7.674V337.5l-.038-.018Z" transform="translate(-737.578 -335.957)" fill="#d5c9d1"/><path d="M762.233,378.54l1.36-.949,1.261-1.191,1.14-1.414,1-1.612.843-1.784.671-1.923.487-2.031.3-2.1.1-2.14-.1-2.14-.3-2.1-.487-2.031-.671-1.923-.843-1.783-.358-.577-.039-.083-.59-.951-.476-.768-.511-.634-.564-.7-.14-.174-.3-.284-.462-.436-.233-.22,1.255.875.252.2,1.22,1.152,1.1,1.367.164.207.949,1.531.8,1.693.067.174.623,1.785.452,1.885.275,1.952.092,1.986-.092,1.986-.275,1.952-.452,1.885L769.128,371l-.067.174-.8,1.693-.949,1.531-.164.207-1.1,1.368-1.22,1.152-.252.2-1.335.931-.307.157-1.424.683-.338.095-.009,0h-.009l-1.119.315-.356.1-.369.034,1.488-.418Z" transform="translate(-742.18 -340.814)" fill="#64455e"/><path d="M761.182,347.569l.3.284.14.174.564.7.511.635.476.768.59.951.039.083.273.577.586,1.241.189.542.526,1.508.1.415.42,1.75.039.281.276,1.962.007.141.1,2.14-.02.258-.035.184-.051.177-.067.167-.081.155-.094.139-.1.122-.114.1-.121.081-.126.059-.13.036-.131.012-.13-.012-.126-.036-.121-.059-.114-.081-.1-.1-.094-.122-.081-.139-.066-.155-.051-.167-.035-.177-.018-.184,0-.258-.105-2.282-.316-2.243-.52-2.165-.715-2.051-.9-1.9-1.066-1.719-1.216-1.508-1.344-1.27-1.45-1.011-1.531-.735-1.586-.446-1.614-.15h.386l1.614.15,1.586.446.017.009h1.24v-.112l.368.1,1.531.735,1.45,1.011.349.33.233.22Z" transform="translate(-739.348 -339.144)" fill="#dfd5dc"/><path d="M731.471,361.722l.1,2.14.3,2.1.488,2.031.671,1.923.842,1.783,1,1.613,1.14,1.414,1.261,1.191,1.36.949,1.436.689,1.488.418,1.513.14,1.513-.14,1.488-.418,1.436-.689,1.36-.949,1.261-1.191,1.14-1.414,1-1.613.842-1.783.671-1.923.488-2.031.3-2.1.1-2.14-.1-2.14-.3-2.1-.488-2.031-.671-1.923-.842-1.783-1-1.613-1.14-1.414-1.261-1.191-1.36-.949-1.436-.689-1.488-.418-1.513-.14h1.006l1.513.14,1.487.418,1.436.689,1.36.949,1.261,1.191,1.141,1.414,1,1.613.842,1.783.671,1.923.487,2.031.3,2.1.1,2.14v.187l.018.183.034.177.051.167.067.154.081.139.094.122.1.1.114.081.121.059.126.035.764.071-.126-.036-.121-.058-.114-.081-.1-.1-.094-.122-.081-.139-.066-.154-.051-.167-.035-.177-.018-.183,0-.258-.106-2.282-.316-2.243-.52-2.165-.715-2.051-.9-1.9-1.066-1.719-1.215-1.508-1.344-1.271-1.45-1.011-1.531-.735-1.586-.446-1.613-.15-1.613.15-1.218.343-.368.1-1.531.735-1.45,1.011-1.344,1.271-1.216,1.508-1.066,1.719-.039.083-.358.577-.842,1.783-.671,1.923-.488,2.031-.3,2.1Zm1.646,0,.055-1.181.163-1.16.269-1.121.37-1.062.465-.984.552-.89.63-.781.7-.658.751-.523.792-.381.821-.231.835-.078.835.078.821.231.793.381.751.523.7.658.63.781.552.89.465.984.37,1.062.269,1.121.163,1.16.055,1.181-.055,1.181-.163,1.161-.269,1.121-.37,1.061-.465.985-.552.89-.63.781-.7.658-.751.524-.793.38-.821.231-.835.078-.835-.078-.821-.231-.792-.38-.751-.524-.7-.658-.63-.781-.552-.89-.465-.985-.37-1.061-.269-1.121-.163-1.161Z" transform="translate(-731.471 -339.144)" fill="#eee8ec"/><g transform="translate(1.647 13.528)"><path d="M734.2,365.811l-.055,1.181.055,1.181.163,1.161.269,1.121.37,1.061.465.984.552.89.63.781.7.658.751.524.793.38.821.231.835.078.835-.078.821-.231.792-.38.751-.524.7-.658.629-.781.552-.89.465-.984.37-1.061.269-1.121.163-1.161.055-1.181-.055-1.181-.163-1.16-.269-1.121-.37-1.062-.465-.984-.552-.89-.629-.781-.7-.658-.751-.523-.792-.381-.821-.231-.835-.078-.835.078-.821.231-.793.381-.751.523-.7.658-.63.781-.552.89-.465.984-.37,1.062-.269,1.121Zm.7,1.181.048-1.041.145-1.024.237-.989.327-.936.41-.868.487-.785.555-.689.614-.58.662-.462.7-.335.724-.2.737-.068.737.068.724.2.7.335.662.462.613.58.555.689.487.785.41.868.326.936.237.989.145,1.024.048,1.041-.048,1.042L746,369.057l-.237.989-.326.936-.41.868-.487.785-.555.688-.613.58-.662.461-.7.335-.724.2-.737.068-.737-.068-.724-.2-.7-.335-.662-.461-.614-.58-.555-.688-.487-.785-.41-.868-.327-.936-.237-.989-.145-1.023Z" transform="translate(-734.147 -357.942)" fill="#f8f6f8"/></g><path d="M753.313,378.237l1.436-.689,1.36-.949,1.261-1.191,1.14-1.414,1-1.612.843-1.784.671-1.923.488-2.031.3-2.1.1-2.14-.1-2.14-.3-2.1-.488-2.031-.671-1.923-.843-1.783-1-1.613-1.14-1.414-1.261-1.191-1.36-.949-1.436-.689-1.487-.418-1.513-.14h1.006l1.513.14,1.487.418,1.436.689,1.36.949,1.261,1.191,1.14,1.414,1,1.613.843,1.783.671,1.923.487,2.031.3,2.1.1,2.14v.187l.017.183.035.177.051.167.067.154.081.139.093.122.1.1.114.081.121.059.126.036.764.071.13.012.131-.012.13-.036.126-.059.121-.081.114-.1.1-.122.094-.139.081-.155.067-.167.051-.177.035-.184.02-.258-.1-2.14-.007-.141-.276-1.962-.039-.281-.42-1.75-.1-.415-.526-1.508-.189-.542-.586-1.241-.273-.577.358.577.843,1.783.671,1.923.487,2.031.3,2.1.1,2.14-.1,2.14-.3,2.1-.487,2.031-.671,1.923-.843,1.784-1,1.612-1.14,1.414-1.261,1.191-1.36.949-1.436.689-1.488.418-1.513.14h-4.023l1.513-.14Z" transform="translate(-738.719 -339.822)" fill="#d5c9d1"/><path d="M745.959,339.823l.031-.22.051-.212.07-.2L746.2,339l.1-.168.119-.148.132-.125.142-.1.112-.054v.167h6.433l.015-.014.142-.1.15-.072.156-.044.158-.014.134.012.135-.012.158.014.155.044.038.018.112.054.142.1.132.125.119.148.1.168.088.186.07.2.051.212.031.22.01.223-.01.223-.031.22-.051.212-.07.2-.088.186-.1.168-.119.148-.132.124-.142.1-.112.054-.038.018-.155.044-.158.015-.135-.013-.134.013-.158-.015-.156-.044-.15-.072-.142-.1-.015-.014h-6.433v.167l-.112-.054-.142-.1-.132-.124-.119-.148-.1-.168-.088-.186-.07-.2-.051-.212-.031-.22-.01-.223Z" transform="translate(-737.04 -336.872)" fill="#eee8ec"/><path d="M735.425,366.62l-.048,1.041.048,1.042.145,1.023.237.989.327.936.41.868.487.785.555.688.613.58.662.461.7.335.724.2.737.068.737-.068.724-.2.7-.335.662-.461.614-.58.555-.688.487-.785.41-.868.326-.936.237-.989.145-1.023.048-1.042-.048-1.041-.145-1.024-.237-.989-.326-.936-.41-.868-.487-.785-.555-.689-.614-.58-.662-.462-.7-.335-.724-.2-.737-.068-.737.068-.724.2-.7.335-.662.462-.613.58-.555.689-.487.785-.41.868-.327.936-.237.989Zm2.1,1.041.03-.645.089-.634.147-.612.2-.58.254-.538.3-.486.344-.426.38-.359.41-.286.433-.207.449-.126.456-.042.457.042.448.126.433.207.41.286.38.359.344.426.3.486.254.538.2.58.147.612.089.634.03.645-.03.645-.089.634-.147.612-.2.58-.254.538-.3.486-.344.426-.38.359-.41.286-.433.208-.448.126-.457.042-.456-.042-.449-.126-.433-.208-.41-.286-.38-.359-.344-.426-.3-.486-.254-.538-.2-.58-.147-.612-.089-.634Z" transform="translate(-732.974 -345.084)" fill="#64455e"/><path d="M738.985,368.28l.147-.612.2-.58.254-.538.3-.486.344-.426.38-.359.41-.286.433-.208.448-.126.456-.042.456.042.448.126.433.208.41.286.38.359.344.426.3.486.254.538.2.58.147.612.089.634.03.645-.03.645-.089.634-.147.612-.2.58-.254.538-.3.486-.344.426-.38.359-.41.286-.433.208-.448.126-.456.042-.456-.042-.448-.126-.433-.208-.41-.286-.38-.359-.344-.426-.3-.486-.254-.538-.2-.58-.147-.612-.089-.634-.03-.645.03-.645Z" transform="translate(-734.316 -346.982)" fill="#f8f6f8"/></g><path d="M775.279,294.581a2.519,2.519,0,0,0,1.948,1.027h-7.274c.336-.363.708-.685,1.062-1.027Z" transform="translate(-746.274 -284.372)" fill="#b6a3b1"/><path d="M772.415,285.42h-7.567a4.067,4.067,0,0,1,1.6-3.441c.253-.165,6.256-3.99,17.941-3.99h7.567c-11.685,0-17.688,3.825-17.941,3.99A4.067,4.067,0,0,0,772.415,285.42Z" transform="translate(-744.311 -277.989)" fill="#eee8ec"/><path d="M765.034,290.066h-7.567A25.1,25.1,0,0,0,751.255,296a29.715,29.715,0,0,0-5.594,16.126v.166l.146,5.572a.4.4,0,0,0,.341.441h7.567a.4.4,0,0,1-.34-.441l-.146-5.572v-.166A29.707,29.707,0,0,1,758.823,296a25.686,25.686,0,0,1,1.786-2.124A24.98,24.98,0,0,1,765.034,290.066Z" transform="translate(-736.93 -282.635)" fill="#64455e"/><g transform="translate(16.299 7.431)"><path d="M770.043,291.7a3.915,3.915,0,0,0,.623,1.141c-10.245,6.884-10.43,18.728-10.43,19.428l-.146,5.586c-.01.247-.156.441-.34.441h-1.3a.4.4,0,0,1-.34-.441l-.146-5.572v-.166A29.707,29.707,0,0,1,763.554,296a25.117,25.117,0,0,1,6.212-5.929A4.961,4.961,0,0,0,770.043,291.7Z" transform="translate(-757.96 -290.066)" fill="#51324c"/></g><g transform="translate(28.105)"><path d="M796.688,277.989c11.685,0,17.688,3.825,17.941,3.99a4.1,4.1,0,0,1,1.6,3.443,4.876,4.876,0,0,1-.289,1.662,3.855,3.855,0,0,1-.611,1.118,2.517,2.517,0,0,1-1.948,1.028,2.363,2.363,0,0,1-1.245-.371c-.029-.028-5.225-3.22-15.45-3.22s-15.421,3.192-15.479,3.22a2.256,2.256,0,0,1-1.214.366,2.519,2.519,0,0,1-1.948-1.027,3.917,3.917,0,0,1-.623-1.141,4.961,4.961,0,0,1-.277-1.637,4.067,4.067,0,0,1,1.6-3.441C779,281.814,785,277.989,796.688,277.989Z" transform="translate(-777.146 -277.989)" fill="#dfd5dc"/></g><path d="M783.748,295.325v-3.611c6.853-3.121,19.03-9.5,34.932-4.377,6.011,1.937,9.23,4.967,10.914,7.988Z" transform="translate(-751.581 -280.844)" fill="#c74038"/></g><g transform="translate(314.943 58.427)"><path d="M728.874,401.088a7.259,7.259,0,0,1-2.476-.389,4.628,4.628,0,0,1-2.715-2.472c-.4-.864-1.621-3.493,5.113-15.05,2.49-4.273,5.174-8.229,6.289-9.84a.918.918,0,0,1,1.289-.223h0a.921.921,0,0,1,.219,1.279c-5.314,7.594-12.676,19.954-11.236,23.056a2.8,2.8,0,0,0,1.668,1.512c3,1.088,8.04-1.249,8.092-1.272l.786,1.671A19.179,19.179,0,0,1,728.874,401.088Z" transform="translate(-723.334 -372.943)" fill="#64455e"/></g><rect width="9.502" height="5.037" rx="2.519" transform="matrix(0.972, -0.233, 0.233, 0.972, 322.027, 82.497)" fill="#51324c"/><g transform="translate(93.234 153.73)"><g transform="translate(2.706 7.938)"><path d="M391.663,584.151a2.763,2.763,0,0,1-2.758,2.608H372.616a2.762,2.762,0,0,1-2.758-2.608l-2.442-43.422h26.69Z" transform="translate(-367.415 -540.729)" fill="#f0ecef"/><path d="M392.355,583.322l1.557-27.688H368.253l1.557,27.688Z" transform="translate(-367.738 -546.463)" fill="#e1b887"/></g><path d="M365.542,532.832a1.59,1.59,0,0,0-1.535,1.177l-.989,3.682h32.1l-.989-3.682a1.59,1.59,0,0,0-1.535-1.177Z" transform="translate(-363.017 -529.753)" fill="#93595d"/><path d="M370.323,527.828a1.59,1.59,0,0,0-1.536,1.177l-.511,1.9h25.63l-.511-1.9a1.59,1.59,0,0,0-1.535-1.177Z" transform="translate(-365.04 -527.828)" fill="#ad7168"/></g><g transform="translate(530.885 62.401)"><path d="M1074.438,569.728q8.267,28.178,14.593,57.106,4.787,21.806,8.413,43.96c-.268-.548-.524-1.109-.781-1.671C1082.583,639.233,1072.9,603.906,1074.438,569.728Z" transform="translate(-1074.278 -452.616)" fill="#097052"/><path d="M1090.109,572.154a1071.994,1071.994,0,0,1-13.03-144.568q5.388,28.859,10.788,57.693c2.109,11.291,4.218,22.582,6.047,33.938,1.227,7.642,2.321,15.312,3.213,23.034a415.756,415.756,0,0,1,2.679,51.361q-.135,12.928-1.062,25.788c-.335-1.656-.68-3.3-1-4.957.257.561.514,1.122.781,1.671Q1094.89,593.968,1090.109,572.154Z" transform="translate(-1075.355 -397.937)" fill="#038a2c"/><path d="M1107.652,523.716c-.892-7.722-1.986-15.392-3.213-23.034,1.907-40.766,10.833-80.675,6.025-121.28a276.893,276.893,0,0,1,12.362,91.244c-.714,22.341-4.095,44.427-6.148,66.647s-2.756,44.974,1.8,66.66a240.711,240.711,0,0,1-8.144-28.875A415.756,415.756,0,0,0,1107.652,523.716Z" transform="translate(-1085.88 -379.401)" fill="#097052"/><path d="M1126.362,642.467c.223-1.47.492-2.953.792-4.449.568-2.794,1.227-5.625,1.908-8.552,2.756-11.891,7.117-23.182,10.13-34.994a137.381,137.381,0,0,0,4.072-23.755,149.478,149.478,0,0,0,.012-21.793,82.772,82.772,0,0,1,2.343,13.4c1.383,14.791-.771,30.13-4.14,44.6-4.4,18.906-10.788,37.144-14.058,56.385C1125.157,656.123,1125.28,649.389,1126.362,642.467Z" transform="translate(-1094.025 -444.614)" fill="#097052"/><path d="M1143.421,532.319c-2.688,9.111-5.757,18.1-8.5,27.176-3.883,12.908-7.14,26.536-7.608,40.124-.3,1.5-.57,2.979-.792,4.449-2.131-23.81,2.968-45.843,7.4-70.6,5.233-29.22,12.194-54.607,9.83-84.363a120.125,120.125,0,0,1,6.036,54.354,153.282,153.282,0,0,1-4,20.47,82.772,82.772,0,0,0-2.343-13.4A149.478,149.478,0,0,1,1143.421,532.319Z" transform="translate(-1094.182 -406.215)" fill="#038a2c"/><path d="M1084.418,716.41a2.533,2.533,0,0,1,2.534-2.456h35a2.535,2.535,0,0,1,2.533,2.456c.316,10.326-1.591,93.446-5,102.637a6.843,6.843,0,0,1-6.413,4.465h-17.251a6.844,6.844,0,0,1-6.415-4.465C1086.009,809.857,1084.1,726.737,1084.418,716.41Z" transform="translate(-1078.166 -508.098)" fill="#ff580f"/><path d="M1089.891,889.25a5.2,5.2,0,0,1-4.877-3.411q-.4-1.1-.767-2.178a1.282,1.282,0,0,1,1.215-1.7h37.825a1.283,1.283,0,0,1,1.215,1.7q-.368,1.081-.767,2.178a5.191,5.191,0,0,1-4.876,3.411Z" transform="translate(-1078.086 -572.728)" fill="#bf420b"/></g><g transform="translate(191.641 363.099)"><path d="M539.631,879.962a40.991,40.991,0,0,0,9.619-7.3c1.376-1.39,2.471-2.684,3.566-4.01a1.4,1.4,0,0,1,2.447.366,17.286,17.286,0,0,0,1.747,3.7,8.529,8.529,0,0,0,7.609,3.91c3.893,0,5.977-3.91,10.4-3.91a6.192,6.192,0,0,1,3.243.986l.4.517c.289.942.706,2.242,1.133,3.7a5.232,5.232,0,0,0-3.563-1.3c-2.624,0-6.946,4.715-6.946,11.1H535.191S534.852,883.531,539.631,879.962Z" transform="translate(-527.655 -868.088)" fill="#1a1a1a"/><path d="M597.546,881.98a5.235,5.235,0,0,1,3.568,1.3,37.559,37.559,0,0,1,1.772,9.8H590.6C590.6,886.7,594.922,881.98,597.546,881.98Z" transform="translate(-548.972 -873.432)" fill="#e9e6ec"/><path d="M530.518,895.156h-7.479c.55-4.269,4.981-4.82,7.269-5.657a34.629,34.629,0,0,0,4.651-2.115h0C530.179,890.954,530.518,895.156,530.518,895.156Z" transform="translate(-522.982 -875.511)" fill="#e9e6ec"/><path d="M545.506,886.689a1.206,1.206,0,0,1-.275-.032,1.243,1.243,0,0,1-.972-1.443,3.423,3.423,0,0,1,3.808-3.026c-.6.45-1.216,3.2-1.308,3.533A1.325,1.325,0,0,1,545.506,886.689Z" transform="translate(-531.137 -873.509)" fill="#e9e6ec"/><path d="M550.828,882.222a1.2,1.2,0,0,1-.274-.032,1.243,1.243,0,0,1-.972-1.444,3.424,3.424,0,0,1,3.808-3.026c-.6.45-1.216,3.2-1.307,3.533A1.327,1.327,0,0,1,550.828,882.222Z" transform="translate(-533.184 -871.791)" fill="#e9e6ec"/><path d="M556.045,877.134a1.273,1.273,0,0,1-.276-.024,1.244,1.244,0,0,1-1.01-1.418,3.418,3.418,0,0,1,3.721-3.126.9.9,0,0,0-.1.112,12.543,12.543,0,0,0-1.1,3.454A1.326,1.326,0,0,1,556.045,877.134Z" transform="translate(-535.178 -869.81)" fill="#e9e6ec"/><path d="M571.706,907.328H526.84c-1.661,0-3.893-2.356-3.893-7.467a5.824,5.824,0,0,1,.559-2.623h53.277C577.17,901.619,576.235,907.328,571.706,907.328Z" transform="translate(-522.947 -879.302)" fill="#e2dfe5"/><path d="M534.555,901.025h46.372a16.834,16.834,0,0,1-.178,2.04H534.555a1.02,1.02,0,1,1,0-2.04Z" transform="translate(-527.02 -880.759)" fill="#3c1a36"/></g><g transform="translate(220.674 219.045)"><path d="M570.131,805.457a1.284,1.284,0,0,0,.356.952,1.3,1.3,0,0,0,.935.4h2.571a1.473,1.473,0,0,0,1.468-1.341l15.645-171.492H578.058Z" transform="translate(-570.13 -633.976)" fill="#a18fa3"/><path d="M592.11,666.893l3-32.917H582.064l-1.521,32.917Z" transform="translate(-574.135 -633.976)" fill="#ded4db" style="mix-blend-mode:multiply;isolation:isolate"/></g><g transform="translate(123.636 38.275)"><g clip-path="url(#a)"><g transform="translate(31.927 11.776)"><g transform="translate(74.896 80.774)"><g transform="translate(2.084 1.91)"><path d="M594.057,493.735a6.041,6.041,0,0,1,5.983,3.221l15.154,31.052a184.9,184.9,0,0,1,15.779,47.685l6.08,33.118a4.843,4.843,0,0,1-4.555,5.618,5.888,5.888,0,0,1-6.414-4.51L620.005,576.8a174.918,174.918,0,0,0-14.925-45.1l-15.155-31.052a4.7,4.7,0,0,1,2.74-6.594A5.754,5.754,0,0,1,594.057,493.735Z" transform="translate(-589.419 -493.705)" fill="#ffa898"/></g><path d="M662.708,687.326a1.714,1.714,0,0,1-1.613,1.986,2.131,2.131,0,0,1-1.2-.221.369.369,0,0,0-.314-.012.29.29,0,0,0-.175.23,2.038,2.038,0,0,1-1.874,1.733,2.543,2.543,0,0,1-1.664-.41.375.375,0,0,0-.333-.041.293.293,0,0,0-.193.239,2.328,2.328,0,0,1-2.143,1.987,2.833,2.833,0,0,1-2.788-1.42.369.369,0,0,0-.289-.186.333.333,0,0,0-.3.13,2.133,2.133,0,0,1-1.533.87,2.429,2.429,0,0,1-2.665-1.838s-.439-2.075-.625-2.9a.384.384,0,0,0-.414-.281c-2.542.26-3.819-2.691-3.626-6.318.226-4.259,3.127-11.91,8.872-12.262,4.788-.293,9.876,3.443,11.147,9.376C661.2,679.044,660.843,677.117,662.708,687.326Z" transform="translate(-607.154 -559.072)" fill="#ffa898"/><path d="M643.689,662.66l.787,4.289a1.178,1.178,0,0,0,1.283.9l10.968-1.108a.968.968,0,0,0,.911-1.124l-.787-4.289Z" transform="translate(-608.212 -556.277)" fill="#798919"/><path d="M631.727,574.291a186.818,186.818,0,0,0-15.939-48.17l-15.154-31.053a8.314,8.314,0,0,0-8.229-4.427,7.96,7.96,0,0,0-1.912.434,6.476,6.476,0,0,0-3.766,9.069L601.881,531.2a172.947,172.947,0,0,1,14.765,44.616l3.741,20.38a1.031,1.031,0,0,0,1.122.789l13.162-1.329a.848.848,0,0,0,.8-.983Z" transform="translate(-586.032 -490.601)" fill="#04b83a"/></g><g transform="translate(0 81.917)"><g transform="translate(3.829 1.91)"><path d="M493.039,495.573a5.17,5.17,0,0,0-5.393,3.452l-9.611,31.556a168.7,168.7,0,0,0-7.3,48.155l-.2,33.246a5.7,5.7,0,0,0,5.531,5.413,5.015,5.015,0,0,0,5.593-4.755l.2-33.246a159.572,159.572,0,0,1,6.9-45.545l9.612-31.557a5.348,5.348,0,0,0-3.9-6.458A6.213,6.213,0,0,0,493.039,495.573Z" transform="translate(-470.536 -495.563)" fill="#ffa898"/></g><path d="M464.313,691.36a2.016,2.016,0,0,0,1.958,1.913,1.966,1.966,0,0,0,1.153-.268.36.36,0,0,1,.311-.024.349.349,0,0,1,.215.221,2.428,2.428,0,0,0,2.173,1.651,2.3,2.3,0,0,0,1.586-.475.363.363,0,0,1,.559.175,2.773,2.773,0,0,0,2.487,1.893,2.435,2.435,0,0,0,2.527-1.528.308.308,0,0,1,.254-.2.377.377,0,0,1,.326.117,2.5,2.5,0,0,0,1.681.8,2.07,2.07,0,0,0,2.33-1.94s.071-2.086.11-2.917a.327.327,0,0,1,.363-.3c2.579.155,3.329-2.837,2.5-6.442-.978-4.235-5.221-11.74-11.008-11.857-4.822-.1-9.232,3.832-9.449,9.794C464.347,683.048,464.367,681.113,464.313,691.36Z" transform="translate(-464.313 -561.598)" fill="#ffa898"/><g transform="translate(1.822)"><path d="M482.18,666.11l-.026,4.305a1,1,0,0,1-1.119.951l-11.124-.658a1.139,1.139,0,0,1-1.106-1.082l.026-4.305Z" transform="translate(-467.863 -558.956)" fill="#798919"/><path d="M467.4,577.419a170.418,170.418,0,0,1,7.369-48.645l9.611-31.556a7.114,7.114,0,0,1,7.416-4.745,8.62,8.62,0,0,1,1.983.356c4.068,1.24,6.47,5.225,5.355,8.883l-9.611,31.556a157.79,157.79,0,0,0-6.826,45.055l-.126,20.458a.877.877,0,0,1-.978.832l-13.35-.789a1,1,0,0,1-.968-.948Z" transform="translate(-467.274 -492.458)" fill="#04b83a"/></g></g><path d="M545.82,484.711l-10.308.21-10.308.209c-8.951.182-15.217,2.269-14.729,7.787.585,6.605,20.17,13.382,26.956,13.68,6.709-.572,25.026-8.12,24.442-14.725C561.384,486.354,554.772,484.529,545.82,484.711Z" transform="translate(-482.061 -407.557)" fill="#038a2c"/><g transform="translate(43.308 53.612)"><path d="M554.154,481.892c.342,3.868-2.793,7.072-7,7.159s-7.9-2.981-8.243-6.849,2.793-7.072,7-7.158S553.812,478.025,554.154,481.892Z" transform="translate(-536.307 -457.454)" fill="#ffa898"/><path d="M546.171,485.248c-4.815.1-9.038-3.408-9.429-7.833l-2.016-22.766c-.391-4.425,3.2-8.091,8.011-8.189s9.038,3.41,9.43,7.834l2.016,22.767C554.574,481.485,550.987,485.15,546.171,485.248Z" transform="translate(-534.697 -446.458)" fill="#ffa898"/><path d="M542.737,446.46c-4.816.1-8.4,3.765-8.011,8.189l1.037,11.716a29.666,29.666,0,0,0,8.84,1.183,27.888,27.888,0,0,0,8.6-1.538l-1.037-11.716C551.776,449.87,547.554,446.362,542.737,446.46Z" transform="translate(-534.697 -446.458)" fill="#f48989"/></g><g transform="translate(18.669 77.303)"><path d="M557.845,541.947h-.022A56.178,56.178,0,0,1,560,529.476a12.033,12.033,0,0,0,2-15.065,5.344,5.344,0,0,1-.747-2.1c-.519-4.881-.884-8.626,2.664-11.665,3.84-3.285,2.562-9.3-2.375-11.5a66.6,66.6,0,0,0-15.953-4.172,1.305,1.305,0,0,0-1.452.749c-1.775,4.919-7.982,8.885-13.747,10.074-5.954-.951-12.84-4.651-15.478-9.48a1.5,1.5,0,0,0-1.58-.688c-9.508,1.871-14.838,4.636-15.158,4.8-4.521,2.388-4.747,8.432-.335,11.556,4.073,2.882,4.37,6.639,4.719,11.537a4.83,4.83,0,0,1-.37,2.116c-2,5.083-.252,11.086,4.646,14.894a60.185,60.185,0,0,1,4.347,12.355h.01c2.046,12.5-4.558,22.151-7.629,25.854a2.406,2.406,0,0,0,.344,3.337l2.81,2.6,61.206-1.245,2.341-2.706a2.4,2.4,0,0,0-.247-3.339C566.3,563.834,558.016,554.49,557.845,541.947Z" transform="translate(-494.654 -484.96)" fill="#04b83a"/><path d="M568.255,549.254a11.912,11.912,0,0,1-8.351,3.486l-21.507.438-21.507.437a13.581,13.581,0,0,1-8.937-3.134l-.015.033a15.6,15.6,0,0,0,14.078,8.1l16.832-.342,16.833-.343c6.059-.123,10.942-3.7,12.6-8.642Z" transform="translate(-499.764 -509.693)" fill="#839219"/><path d="M512.841,630.006a26.99,26.99,0,0,0-2.265,10.782.443.443,0,0,0,.458.416l66.793-1.359a.377.377,0,0,0,.383-.433,30.221,30.221,0,0,0-4.163-10.652Z" transform="translate(-500.779 -540.278)" fill="#798919"/><path d="M544.35,493.846a48.565,48.565,0,0,1-12.343-1.434,25.615,25.615,0,0,0,12.752,6.065,21.782,21.782,0,0,0,11.636-6.561A45.969,45.969,0,0,1,544.35,493.846Z" transform="translate(-509.023 -487.636)" fill="#f2eef1"/></g><g transform="translate(17.908 4.191)"><path d="M589.731,413.566c-2.206-.314-4.361,2.877-4.813,7.128s.968,7.952,3.173,8.266,4.361-2.877,4.814-7.128S591.937,413.88,589.731,413.566Z" transform="translate(-528.583 -384.376)" fill="#f48989"/><path d="M495.687,415.5c2.143-.4,4.854,2.69,6.056,6.907s.441,7.963-1.7,8.365-4.854-2.69-6.056-6.907S493.546,415.905,495.687,415.5Z" transform="translate(-493.416 -385.116)" fill="#f48989"/><path d="M555.847,398.673c-1.618-18.28-8.039-32.993-31.272-32.521s-27.029,15.393-25.411,33.673,15.619,32.842,31.271,32.524S557.466,416.952,555.847,398.673Z" transform="translate(-495.502 -366.141)" fill="#ffa898"/></g><path d="M549.944,446.34c-.1.114-2.451,2.8-9.374,2.944h-.014c-6.884.14-9.715-2.418-9.859-2.552a1.491,1.491,0,0,0-1.957-.112,1.193,1.193,0,0,0-.017,1.8c.149.146,3.737,3.584,12.058,3.415h.014c8.327-.17,11.291-3.742,11.414-3.893a1.224,1.224,0,0,0-.329-1.774A1.458,1.458,0,0,0,549.944,446.34Z" transform="translate(-488.937 -392.623)" fill="#dd7d80"/><path d="M519.579,427.663l1.415.215a2.1,2.1,0,0,0,2.505-1.71,2.275,2.275,0,0,0-2.018-2.4l-1.414-.216a2.1,2.1,0,0,0-2.506,1.709A2.277,2.277,0,0,0,519.579,427.663Z" transform="translate(-484.792 -384.024)" fill="#1a1a1a"/><path d="M570.336,426.614l-1.372.272a2.442,2.442,0,0,1-2.8-1.6,1.95,1.95,0,0,1,1.586-2.472l1.372-.273a2.441,2.441,0,0,1,2.8,1.6A1.951,1.951,0,0,1,570.336,426.614Z" transform="translate(-503.462 -383.627)" fill="#1a1a1a"/><path d="M571.208,414.672c-3.911-3.579-10.5-2.437-10.782-2.387a.775.775,0,0,0-.65.97.974.974,0,0,0,1.1.655c.06-.011,5.912-1.016,9.094,1.9a1,1,0,0,0,.693.26.889.889,0,0,0,.585-.226A.78.78,0,0,0,571.208,414.672Z" transform="translate(-501.025 -379.619)" fill="#1a1a1a"/><path d="M522,414.636a.831.831,0,0,0,.98-.7.908.908,0,0,0-.819-.94c-.286-.039-7.053-.911-10.323,2.816a.794.794,0,0,0,.167,1.168,1.009,1.009,0,0,0,.623.2.873.873,0,0,0,.645-.287C515.934,413.865,521.941,414.627,522,414.636Z" transform="translate(-482.524 -379.93)" fill="#1a1a1a"/><g transform="translate(12.354)"><path d="M548.541,395.095c9.928,9.238,17.865,30.251,9.2,44.512,0,0,8.713-5.352,12.631-18.484.729-15.166-6.661-26.629-16.3-32.784-13.786-8.8-30.716-7.135-36.252-8.885C521.72,384.239,536.88,384.243,548.541,395.095Z" transform="translate(-497.252 -367.071)" fill="#333"/><path d="M582.7,445.184a28.864,28.864,0,0,1-8.539,12.1c3.814,1.933,5.131,4.382,5.254,7.61C582.973,459.034,583.73,452.036,582.7,445.184Z" transform="translate(-518.923 -392.356)"/><path d="M559.151,394.779c-1.659-18.745-18.331-35.852-38.438-35.442-9.37.19-13.961,1.924-18.286,6-8.771,1.56-18.135,8.578-18.036,22.583.062,8.711,1.722,21.259,15.661,27.646a38.239,38.239,0,0,1-3.459-6.389h0l-.023,0c-2.143.4-4.854-2.69-6.056-6.907s-.44-7.963,1.7-8.365a2.331,2.331,0,0,1,1.164.1v0c.465-6.755,13.176-8.874,11.584-22.289,5.536,1.749,22.466.08,36.252,8.885,9.636,6.155,17.027,17.618,16.3,32.784A49.351,49.351,0,0,0,559.151,394.779Z" transform="translate(-484.391 -359.329)" fill="#1a1a1a"/></g></g></g></g></g></g></svg>